<svg width="30" height="30" viewBox="0 0 30 30" fill="none" xmlns="http://www.w3.org/2000/svg">
<path d="M14.999 0.666016C18.8006 0.666016 22.4466 2.1762 25.1348 4.86426C27.8229 7.5524 29.334 11.1984 29.334 15C29.334 16.8823 28.9625 18.7463 28.2422 20.4854C27.5218 22.2244 26.4658 23.8047 25.1348 25.1357C23.8038 26.4667 22.2234 27.5228 20.4844 28.2432C18.7456 28.9633 16.882 29.3339 15 29.334L14.999 29.333V29.334C13.1168 29.334 11.2526 28.9635 9.51367 28.2432C7.77467 27.5228 6.19426 26.4667 4.86328 25.1357C3.53231 23.8047 2.47619 22.2244 1.75586 20.4854C1.03557 18.7463 0.665039 16.8823 0.665039 15C0.665043 11.1984 2.17521 7.55239 4.86328 4.86426C7.55137 2.17617 11.1975 0.666085 14.999 0.666016ZM10.6826 16C10.7231 17.3208 10.848 18.6384 11.0596 19.9434C11.2859 21.309 11.6022 22.5477 11.9883 23.6113L12.1582 24.0566C12.6238 25.2212 13.1519 26.0777 13.6797 26.624C14.2024 27.1649 14.6516 27.3327 14.999 27.333C15.3466 27.333 15.7981 27.1654 16.3232 26.623C16.85 26.0761 17.3779 25.2218 17.8428 24.0576V24.0566C18.3066 22.8983 18.6831 21.5012 18.9404 19.9404V19.9395C19.1481 18.6865 19.2741 17.3557 19.3164 16H10.6826ZM2.70898 16C2.81282 17.2769 3.11175 18.5323 3.60352 19.7197C4.22333 21.2161 5.13209 22.5764 6.27734 23.7217C7.42261 24.8669 8.78295 25.7757 10.2793 26.3955C10.6067 26.5311 10.9406 26.6493 11.2773 26.7559C10.9153 26.1765 10.5883 25.519 10.3008 24.7998V24.7988C9.77302 23.4805 9.36314 21.9406 9.08594 20.2666L9.08496 20.2627C8.85632 18.8521 8.72261 17.4278 8.68164 16H2.70898ZM21.3174 16C21.2746 17.4614 21.1401 18.9024 20.9141 20.2666C20.6382 21.9392 20.2269 23.4796 19.6992 24.7979L19.7002 24.7988C19.4124 25.5195 19.0836 26.1765 18.7217 26.7559C19.0582 26.6493 19.3915 26.531 19.7188 26.3955C21.2151 25.7757 22.5754 24.8669 23.7207 23.7217C24.866 22.5764 25.7747 21.2161 26.3945 19.7197C26.8863 18.5323 27.1852 17.2769 27.2891 16H21.3174ZM11.2764 3.24316C9.40796 3.83477 7.68877 4.86689 6.27734 6.27832C4.20122 8.3545 2.94222 11.095 2.70605 14H8.68262C8.72518 12.5391 8.85986 11.0988 9.08594 9.73438C9.36315 8.06145 9.77283 6.51985 10.3008 5.20117C10.5885 4.48072 10.9146 3.82237 11.2764 3.24316ZM15 2.66699C14.6532 2.66712 14.2028 2.83573 13.6768 3.37793C13.1502 3.9249 12.623 4.77951 12.1582 5.94336V5.94434C11.6944 7.10275 11.3173 8.50025 11.0586 10.0615C10.8511 11.3141 10.7254 12.6442 10.6836 14H19.3164C19.2743 12.6441 19.1489 11.3138 18.9404 10.0615V10.0605C18.6832 8.49889 18.3066 7.10273 17.8428 5.94434V5.94336C17.3773 4.77909 16.849 3.92333 16.3213 3.37695C15.7982 2.83557 15.3476 2.66715 15 2.66699ZM18.7207 3.24316C19.0828 3.82295 19.4115 4.48062 19.6992 5.2002C20.2272 6.51891 20.6381 8.06017 20.9141 9.73535H20.9131C21.1402 11.0997 21.2746 12.5397 21.3174 14H27.292C27.0558 11.0949 25.7969 8.35451 23.7207 6.27832C22.309 4.86662 20.5896 3.83468 18.7207 3.24316Z" fill="url(#paint0_linear_19_47)"/>
<defs>
<linearGradient id="paint0_linear_19_47" x1="14.9995" y1="0.666016" x2="14.9995" y2="29.334" gradientUnits="userSpaceOnUse">
<stop stop-color="#5BCAAE"/>
<stop offset="1" stop-color="#0F6641"/>
</linearGradient>
</defs>
</svg>
