<svg width="30" height="29" viewBox="0 0 30 29" fill="none" xmlns="http://www.w3.org/2000/svg">
<path fill-rule="evenodd" clip-rule="evenodd" d="M2.76788 14H5.99988C6.2651 14 6.51945 14.1054 6.70699 14.2929C6.89452 14.4804 6.99988 14.7348 6.99988 15V23C6.99988 23.2652 6.89452 23.5196 6.70699 23.7071C6.51945 23.8946 6.2651 24 5.99988 24H1.99988C1.76583 24.0001 1.53917 23.9181 1.35936 23.7682C1.17956 23.6184 1.05801 23.4102 1.01588 23.18C0.32988 19.41 0.16188 13.71 1.96388 8.9C2.86988 6.48 4.29188 4.24 6.43788 2.61C8.59388 0.97 11.4099 0 14.9999 0C18.5919 0 21.4079 0.972 23.5639 2.61C25.7099 4.242 27.1319 6.478 28.0379 8.9C29.8399 13.71 29.6699 19.41 28.9859 23.18C28.9438 23.4102 28.8222 23.6184 28.6424 23.7682C28.4626 23.9181 28.2359 24.0001 28.0019 24H26.1099C23.1519 27.476 18.6839 28.216 15.9619 28H13.9999C13.7347 28 13.4803 27.8946 13.2928 27.7071C13.1052 27.5196 12.9999 27.2652 12.9999 27V25C12.9999 24.7348 13.1052 24.4804 13.2928 24.2929C13.4803 24.1054 13.7347 24 13.9999 24H15.9999C16.2651 24 16.5195 24.1054 16.707 24.2929C16.8945 24.4804 16.9999 24.7348 16.9999 25V26.034C18.9279 26.01 21.4279 25.444 23.4339 23.824C23.3001 23.7322 23.1907 23.6092 23.1151 23.4656C23.0395 23.3221 22.9999 23.1623 22.9999 23V15C22.9999 14.7348 23.1052 14.4804 23.2928 14.2929C23.4803 14.1054 23.7347 14 23.9999 14H27.2299C27.0299 12.496 26.6879 11 26.1639 9.6C25.3539 7.44 24.1239 5.55 22.3499 4.202C20.5879 2.862 18.2119 2 14.9999 2C11.7879 2 9.41388 2.86 7.64788 4.202C5.87388 5.55 4.64788 7.438 3.83588 9.602C3.31462 11.0229 2.95633 12.4983 2.76788 14Z" fill="url(#paint0_linear_19_40)"/>
<defs>
<linearGradient id="paint0_linear_19_40" x1="15.0005" y1="0" x2="15.0005" y2="28.0344" gradientUnits="userSpaceOnUse">
<stop stop-color="#5BCAAE"/>
<stop offset="1" stop-color="#0F6641"/>
</linearGradient>
</defs>
</svg>
